<?xml version="1.0" encoding="UTF-8" standalone="no"?><!DOCTYPE svg PUBLIC "-//W3C//DTD SVG 1.1//EN" "http://www.w3.org/Graphics/SVG/1.1/DTD/svg11.dtd"><svg width="100%" height="100%" viewBox="0 0 2059 1467" version="1.1" xmlns="http://www.w3.org/2000/svg" xmlns:xlink="http://www.w3.org/1999/xlink" xml:space="preserve" xmlns:serif="http://www.serif.com/" style="fill-rule:evenodd;clip-rule:evenodd;stroke-linejoin:round;stroke-miterlimit:2;"><g id="Layer1"><path d="M1649.3,848.438c-0.521,-0.863 -0.812,-146.405 -0.65,-323.438l0.308,-321.875l53.125,-0.633c139.992,-1.663 216.113,13.816 272.021,55.321c53.663,39.829 80.729,101.058 77.459,175.245c-1.35,30.825 -7.13,53.663 -20.33,80.484c-22.608,45.929 -61.57,82.7 -110.154,103.971c-36.071,15.787 -88.25,25.587 -146.079,27.425c-20.05,0.637 -38.721,1.629 -41.487,2.2l-5.013,1.025l1.383,98.404c1.075,75.683 0.813,98.975 -1.125,100.912c-2.812,2.829 -77.783,3.725 -79.458,0.959Zm150.246,-270.409c37.008,-3.875 58.396,-9.066 81.021,-19.646c30.208,-14.129 51.725,-32.275 65.804,-55.504c24.9,-41.079 26.433,-106.071 3.579,-150.892c-18.408,-36.099 -61.229,-65.612 -110.171,-75.895c-17.775,-3.746 -60.758,-7.342 -87.696,-7.342l-20.216,-0l-1.334,17.187c-0.733,9.459 -1.35,79.771 -1.35,156.25l-0.016,139.063l19.858,0c10.904,0 33.642,-1.45 50.521,-3.221Z" style="fill:#3ba1b9;fill-rule:nonzero;"/><g transform="matrix(2.08333,0,0,2.08333,-98.1724,-492.707)"><text x="46px" y="809.442px" style="font-family:'Lato-Regular', 'Lato', sans-serif;font-size:80px;fill:#3ba1b9;">E<tspan x="125.28px 212.48px 294.72px 374.72px 468px 507.2px 582.4px 670px 727.36px 806.64px 899.92px 987.52px " y="809.442px 809.442px 809.442px 809.442px 809.442px 809.442px 809.442px 809.442px 809.442px 809.442px 809.442px 809.442px ">ARTH SCIENCE</tspan></text><text x="46.44px" y="890.442px" style="font-family:'Lato-Regular', 'Lato', sans-serif;font-size:72px;fill:#3ba1b9;">I<tspan x="74.304px 134.496px 181.008px 244.224px 296.352px 368.352px 418.32px 466.56px 494.424px 557.64px 617.832px 637.488px 682.272px 736.992px 787.248px 835.488px 895.68px 943.272px 995.4px " y="890.442px 890.442px 890.442px 890.442px 890.442px 890.442px 890.442px 890.442px 890.442px 890.442px 890.442px 890.442px 890.442px 890.442px 890.442px 890.442px 890.442px 890.442px 890.442px ">NFORMATION PARTNERS</tspan></text></g></g><g id="Layer2"><path d="M1397.33,848.438c-0.471,-0.863 -0.762,-146.405 -0.65,-323.438l0.196,-321.875l38.396,-0.571c21.208,-0.308 39.225,0.279 40.283,1.338c2.1,2.1 2.571,640.671 0.471,644.058c-1.479,2.408 -77.425,2.863 -78.696,0.488Z" style="fill:#3ba1b9;fill-rule:nonzero;"/></g><g id="Layer3"><path d="M897.054,434.896c0,-0 -11.996,-81.917 -11.15,-82.65c0.846,-0.75 2.475,-6.3 3.613,-12.354c9.441,-49.704 54.658,-100.259 109.458,-122.363c23.242,-9.375 52.75,-16.437 82.225,-19.696c32.65,-3.612 138.737,-1.708 143.004,2.559c3.758,3.775 10.496,67.821 7.454,70.879c-1.337,1.321 -10.287,1.108 -25.7,-0.6c-32.779,-3.629 -107.016,-3.713 -126.791,-0.129c-39.5,7.158 -70.038,21.433 -86.688,40.541c-10.271,11.8 -18.275,29.525 -18.408,40.838l-0.113,9.196c0,-0 36.883,69.009 35.271,70.621c-3.775,3.791 24.888,21.454 88.621,54.608c55.471,28.841 77.933,42.787 97.513,60.562c24.25,22.005 42.17,50.05 49.866,78.092c5.209,18.913 5.225,66.421 0.034,85.417c-20.359,74.479 -84.113,122.446 -189.013,142.221c-21.825,4.116 -30.175,4.491 -93.75,4.229c-38.379,-0.146 -74.008,-1.088 -79.167,-2.067l-9.375,-1.788l-1.316,-11.412c-2.509,-21.596 -3.617,-55.354 -1.892,-58.121c1.417,-2.296 6.513,-2.325 29.496,-0.196c84.683,7.83 166.633,-0.745 209.746,-21.954c20.687,-10.192 39.779,-28.287 47.171,-44.729c11.654,-25.975 8.737,-62.629 -6.917,-86.75c-15.609,-24.071 -32.571,-35.725 -108.579,-74.608c-60.484,-30.925 -88.396,-48.375 -107.438,-67.109c-14,-13.783 -27.571,-31.9 -33.104,-44.17l-4.071,-9.067Z" style="fill:#3ba1b9;fill-rule:nonzero;"/></g><g id="Layer4"><path d="M638.542,1041.5c-123.488,-11.637 -234.521,-55.046 -330.209,-129.071c-43.475,-33.625 -96.125,-92.725 -124.512,-139.746c-39.192,-64.908 -62.971,-136.733 -68.392,-206.591c-0.779,-10.059 -2.262,-18.813 -3.287,-19.45c-1.025,-0.634 176.854,-50.096 176.854,-50.096l1.287,30.371c1.109,26.35 5.125,56.687 7.88,59.425c1.741,1.758 74.525,15.575 109.129,20.717c99.625,14.845 187.225,20.654 296.321,19.679c63.429,-0.571 69.533,-0.325 72.854,2.996c3.433,3.433 3.383,3.841 -0.75,7.975c-5.142,5.141 -25.667,10.254 -70.442,17.579c-100.554,16.437 -235.758,21.708 -324.025,12.662c-16.617,-1.712 -36.542,-3.762 -44.271,-4.575c-13.608,-1.4 -14.062,-1.304 -14.062,3.204c-0,7.521 7.275,15.613 20.262,22.53c19.371,10.316 108.954,30.629 171.404,38.85c52.034,6.85 76.854,8.07 173.634,8.591c63.116,0.329 100.454,1.288 101.775,2.604c3.154,3.142 0.162,9.913 -5.534,12.5c-6.95,3.175 -63.675,14.146 -92.791,17.955c-85.255,11.15 -189.438,13.445 -281.771,6.2c-20.688,-1.625 -21.859,-0.567 -13.475,11.883c7.891,11.7 23.825,17.95 66.616,26.075c107.551,20.458 225.146,31.933 327.98,32.012c50.616,0.05 59.42,1.075 61.783,7.229c2.671,6.98 -5.583,10.838 -35.321,16.505c-67.708,12.92 -122.1,17.966 -208.104,19.3c-37.808,0.604 -69.938,1.45 -71.404,1.92c-8.788,2.767 25.996,31.25 54.737,44.809c55.534,26.221 167.255,58.237 239.584,68.654c9.162,1.333 19.237,3.383 22.396,4.571c7.016,2.637 7.504,8.725 1.041,12.942c-4.979,3.254 -42.35,11.262 -78.646,16.862c-26.316,4.05 -108.22,5.779 -138.541,2.929Z" style="fill:#3ba1b9;fill-rule:nonzero;"/><path d="M322.167,365.054c0.637,1.025 -191.614,43.977 -189.076,34.356c1.433,-5.437 8.934,-32.06 14.221,-45.243c47.855,-119.338 145.542,-220.946 270.396,-281.234c54.771,-26.45 122.234,-46.925 186.459,-56.558c28.075,-4.217 40.054,-4.85 91.666,-4.833c58.317,0.029 80.079,1.741 120.834,9.504c20.558,3.904 67.3,16.162 85.416,22.379c50.667,17.4 113.98,47.917 123.388,59.454c5.566,6.821 4.642,13.2 -2.458,16.863c-7.992,4.133 -12.921,4.004 -36.067,-0.909c-105.808,-22.495 -216.958,-23.521 -314.925,-2.916c-141.583,29.787 -258.692,101.825 -323.308,198.879c-15.363,23.079 -28.255,47.492 -26.546,50.258Z" style="fill:#3ba1b9;fill-rule:nonzero;"/></g><g id="Layer5"><path d="M288.996,496.55c-0,-0 -175.829,50.733 -176.854,50.096c-1.025,-0.633 -9.213,2.296 -18.179,6.512c-15.513,7.275 -16.617,7.505 -22.334,4.509c-18.958,-9.929 -41.354,-48.096 -54.196,-92.384c-2.72,-9.358 -4.345,-18.554 -3.629,-20.425c2.829,-7.358 60.675,-31.025 107.125,-43.816c11.279,-3.092 199.529,-38.754 201.238,-35.988c0.637,1.025 3.629,1.354 6.675,0.734c8.904,-1.821 80.45,-7.438 136.783,-10.742c68.458,-4.004 263.313,-5.908 350,-3.417c37.808,1.071 69.433,1.35 70.279,0.617c0.846,-0.75 88.054,8.871 88.054,8.871l36.459,6.704c20.054,3.679 46.079,9.167 57.846,12.192c49.037,12.6 114.241,40.266 106.479,45.2c-1.579,0.991 -20.217,1.92 -41.409,2.05c-56.687,0.341 -122.345,2.716 -124.104,4.475c-3.775,3.791 -112.175,3.158 -112.175,3.158l-28.221,1.4c-212.241,10.546 -435.175,32.862 -555.062,55.567l-24.775,4.687Z" style="fill:#a9d4e3;fill-rule:nonzero;"/></g></svg>