<?xml version="1.0" encoding="UTF-8" standalone="no"?><!DOCTYPE svg PUBLIC "-//W3C//DTD SVG 1.1//EN" "http://www.w3.org/Graphics/SVG/1.1/DTD/svg11.dtd"><svg width="100%" height="100%" viewBox="0 0 1530 1015" version="1.1" xmlns="http://www.w3.org/2000/svg" xmlns:xlink="http://www.w3.org/1999/xlink" xml:space="preserve" xmlns:serif="http://www.serif.com/" style="fill-rule:evenodd;clip-rule:evenodd;stroke-linejoin:round;stroke-miterlimit:2;"><path d="M469.786,772.472c-92.616,-8.728 -175.891,-41.284 -247.657,-96.803c-32.606,-25.219 -72.093,-69.544 -93.384,-104.809c-29.394,-48.682 -47.228,-102.55 -51.294,-154.944c-0.584,-7.544 -1.697,-14.11 -2.465,-14.588c-0.769,-0.475 -6.91,1.722 -13.635,4.885c-11.634,5.456 -12.462,5.628 -16.75,3.381c-14.219,-7.447 -31.015,-36.072 -40.647,-69.288c-2.04,-7.018 -3.259,-13.915 -2.722,-15.318c2.122,-5.519 45.507,-23.269 80.344,-32.863c8.46,-2.319 8.719,-2.562 10.622,-9.778c1.075,-4.078 5.2,-15.491 9.166,-25.378c35.89,-89.503 109.156,-165.709 202.797,-210.925c41.078,-19.838 91.675,-35.194 139.843,-42.419c21.057,-3.162 30.041,-3.637 68.75,-3.625c43.738,0.022 60.06,1.306 90.625,7.128c15.419,2.928 50.475,12.122 64.063,16.785c38,13.05 85.484,35.937 92.54,44.59c4.175,5.116 3.482,9.9 -1.843,12.647c-5.994,3.1 -9.691,3.003 -27.05,-0.681c-79.357,-16.872 -162.719,-17.641 -236.194,-2.188c-106.188,22.341 -194.019,76.369 -242.481,149.16c-11.522,17.309 -21.191,35.619 -19.91,37.694c0.478,0.768 2.722,1.015 5.007,0.55c6.678,-1.366 60.337,-5.579 102.587,-8.057c51.344,-3.003 197.484,-4.431 262.5,-2.562c28.356,0.803 52.075,1.012 52.709,0.462c0.635,-0.562 1.857,-4.725 2.71,-9.265c7.081,-37.278 40.994,-75.194 82.094,-91.772c17.431,-7.031 39.562,-12.328 61.668,-14.772c24.488,-2.709 104.053,-1.281 107.253,1.919c2.819,2.831 7.872,50.865 5.591,53.159c-1.003,0.991 -7.716,0.831 -19.275,-0.45c-24.584,-2.722 -80.262,-2.784 -95.094,-0.097c-29.625,5.369 -52.528,16.075 -65.015,30.406c-7.703,8.85 -13.707,22.144 -13.807,30.629l-0.084,6.896l27.344,5.029c15.04,2.759 34.559,6.875 43.384,9.143c36.778,9.45 85.681,30.2 79.86,33.9c-1.185,0.744 -15.163,1.441 -31.057,1.538c-42.515,0.256 -91.759,2.037 -93.078,3.356c-2.831,2.844 18.666,16.091 66.466,40.956c41.603,21.632 58.45,32.091 73.134,45.422c18.188,16.503 31.628,37.538 37.4,58.569c3.906,14.184 3.919,49.816 0.025,64.062c-15.269,55.86 -63.084,91.835 -141.759,106.666c-16.369,3.088 -22.631,3.369 -70.313,3.172c-28.784,-0.109 -55.506,-0.816 -59.375,-1.55l-7.031,-1.341l-0.987,-8.559c-1.882,-16.197 -2.713,-41.516 -1.419,-43.591c1.062,-1.722 4.884,-1.743 22.122,-0.147c63.512,5.872 124.975,-0.559 157.309,-16.465c15.516,-7.644 29.834,-21.216 35.378,-33.547c8.741,-19.481 6.553,-46.972 -5.187,-65.063c-11.707,-18.053 -24.428,-26.793 -81.435,-55.956c-45.362,-23.194 -66.297,-36.281 -80.578,-50.331c-10.5,-10.338 -20.678,-23.925 -24.828,-33.128l-3.053,-6.8l-21.166,1.05c-159.181,7.909 -326.381,24.647 -416.297,41.675l-18.581,3.515l0.966,22.779c0.831,19.762 3.844,42.515 5.909,44.568c1.306,1.319 55.894,11.682 81.847,15.538c74.719,11.134 140.419,15.49 222.241,14.759c47.572,-0.428 52.15,-0.244 54.64,2.247c2.575,2.575 2.538,2.881 -0.562,5.981c-3.856,3.857 -19.25,7.691 -52.831,13.185c-75.416,12.328 -176.819,16.281 -243.019,9.497c-12.463,-1.285 -27.406,-2.822 -33.203,-3.432c-10.207,-1.05 -10.547,-0.978 -10.547,2.403c-0,5.641 5.456,11.71 15.197,16.897c14.528,7.738 81.715,22.972 128.553,29.138c39.025,5.137 57.64,6.053 130.225,6.444c47.337,0.246 75.34,0.965 76.331,1.953c2.366,2.356 0.122,7.434 -4.15,9.375c-5.212,2.381 -47.756,10.609 -69.594,13.465c-63.94,8.363 -142.078,10.085 -211.328,4.65c-15.515,-1.218 -16.394,-0.425 -10.106,8.913c5.919,8.775 17.869,13.462 49.962,19.556c80.663,15.344 168.86,23.95 245.985,24.009c37.962,0.038 44.565,0.807 46.337,5.422c2.003,5.235 -4.187,8.128 -26.49,12.378c-50.782,9.691 -91.575,13.475 -156.078,14.475c-28.357,0.454 -52.454,1.088 -53.554,1.441c-6.59,2.075 19.497,23.438 41.054,33.606c41.65,19.666 125.44,43.678 179.687,51.491c6.872,1 14.428,2.537 16.797,3.428c5.262,1.978 5.628,6.544 0.781,9.706c-3.734,2.441 -31.762,8.447 -58.984,12.647c-19.738,3.038 -81.166,4.335 -103.906,2.197Zm569.09,-144.8c-0.353,-0.647 -0.572,-109.803 -0.487,-242.578l0.147,-241.406l28.796,-0.428c15.907,-0.232 29.419,0.209 30.213,1.003c1.575,1.575 1.928,480.503 0.353,483.043c-1.109,1.807 -58.069,2.147 -59.022,0.366Zm188.978,0c-0.39,-0.647 -0.609,-109.803 -0.487,-242.578l0.231,-241.406l39.844,-0.475c104.994,-1.247 162.084,10.362 204.015,41.49c40.247,29.872 60.547,75.794 58.094,131.435c-1.012,23.118 -5.347,40.247 -15.247,60.362c-16.956,34.447 -46.178,62.025 -82.615,77.978c-27.053,11.841 -66.188,19.191 -109.56,20.569c-15.037,0.478 -29.04,1.222 -31.115,1.65l-3.76,0.769l1.038,73.803c0.806,56.762 0.609,74.231 -0.844,75.684c-2.109,2.122 -58.337,2.794 -59.594,0.719Zm112.685,-202.806c27.756,-2.906 43.797,-6.8 60.765,-14.735c22.657,-10.596 38.794,-24.206 49.353,-41.628c18.675,-30.809 19.825,-79.553 2.685,-113.168c-13.806,-27.075 -45.922,-49.21 -82.628,-56.922c-13.332,-2.81 -45.569,-5.507 -65.772,-5.507l-15.163,0l-1,12.891c-0.55,7.094 -1.012,59.828 -1.012,117.188l-0.013,104.296l14.894,0c8.178,0 25.231,-1.087 37.891,-2.415Z" style="fill:#fff;fill-rule:nonzero;"/><g transform="matrix(1.5625,0,0,1.5625,-82.75,-377.445)"><text x="46px" y="809.442px" style="font-family:'Lato-Regular', 'Lato', sans-serif;font-size:80px;fill:#fff;">E<tspan x="125.28px 212.48px 294.72px 374.72px 468px 507.2px 582.4px 670px 727.36px 806.64px 899.92px 987.52px " y="809.442px 809.442px 809.442px 809.442px 809.442px 809.442px 809.442px 809.442px 809.442px 809.442px 809.442px 809.442px ">ARTH SCIENCE</tspan></text><text x="46.44px" y="890.442px" style="font-family:'Lato-Regular', 'Lato', sans-serif;font-size:72px;fill:#fff;">I<tspan x="74.304px 134.496px 181.008px 244.224px 296.352px 368.352px 418.32px 466.56px 494.424px 557.64px 617.832px 637.488px 682.272px 736.992px 787.248px 835.488px 895.68px 943.272px 995.4px " y="890.442px 890.442px 890.442px 890.442px 890.442px 890.442px 890.442px 890.442px 890.442px 890.442px 890.442px 890.442px 890.442px 890.442px 890.442px 890.442px 890.442px 890.442px 890.442px ">NFORMATION PARTNERS</tspan></text></g></svg>